<svg width="507" height="533" viewBox="0 0 507 533" fill="none" xmlns="http://www.w3.org/2000/svg">
<g clip-path="url(#clip0)">
<path d="M411.347 492.55C446.907 463.854 473.577 425.64 488.245 382.364C502.913 339.088 504.977 292.534 494.194 248.13C483.411 203.727 460.227 163.303 427.345 131.574C394.463 99.8449 353.238 78.1178 308.478 68.9262C263.718 59.7346 217.267 63.4573 174.542 79.6604C131.817 95.8634 94.5789 123.879 67.1699 160.44C39.761 197.001 23.3109 240.601 19.7379 286.155C16.1649 331.71 25.6163 377.341 46.9899 417.728L70.8776 405.087C51.901 369.228 43.5095 328.714 46.6818 288.269C49.8541 247.823 64.4595 209.113 88.7947 176.652C113.13 144.191 146.192 119.317 184.126 104.931C222.059 90.5449 263.301 87.2396 303.042 95.4004C342.782 103.561 379.384 122.852 408.579 151.023C437.773 179.194 458.357 215.084 467.931 254.508C477.504 293.932 475.672 335.266 462.649 373.688C449.625 412.111 425.947 446.04 394.375 471.517L411.347 492.55Z" fill="url(#paint0_linear)"/>
<path d="M170.812 138.781H255.031C259.51 138.781 261.75 140.396 261.75 143.625C261.75 145.083 260.708 147.74 258.625 151.594C256.542 155.344 254.042 158.521 251.125 161.125C248.729 163.312 244.927 164.406 239.719 164.406H150.031C148.469 164.406 147.323 164.354 146.594 164.25C145.865 164.042 145.188 163.573 144.562 162.844C144.042 162.115 143.781 161.073 143.781 159.719C143.781 155.865 146.802 151.438 152.844 146.438C158.99 141.333 164.979 138.781 170.812 138.781ZM143.938 351.281V274.25C143.938 270.5 145.188 268.052 147.688 266.906C150.292 265.656 154.302 265.031 159.719 265.031C165.552 265.031 169.615 265.656 171.906 266.906C174.198 268.052 175.344 270.5 175.344 274.25V325.969C175.344 330.24 177.479 332.375 181.75 332.375H258.156C262.635 332.375 264.875 333.99 264.875 337.219C264.875 338.677 263.833 341.385 261.75 345.344C259.667 349.198 257.219 352.375 254.406 354.875C252.01 356.958 248.156 358 242.844 358H149.406C145.76 358 143.938 355.76 143.938 351.281ZM143.938 249.25V183.156C143.938 179.406 145.188 176.906 147.688 175.656C150.292 174.406 154.302 173.781 159.719 173.781C165.552 173.781 169.615 174.406 171.906 175.656C174.198 176.802 175.344 179.302 175.344 183.156V223.625C175.344 227.896 177.479 230.031 181.75 230.031H245.344C249.823 230.031 252.062 231.646 252.062 234.875C252.062 236.333 251.021 238.99 248.938 242.844C246.854 246.594 244.406 249.771 241.594 252.375C239.198 254.562 235.344 255.656 230.031 255.656H150.344C146.073 255.656 143.938 253.521 143.938 249.25Z" fill="url(#paint1_linear)"/>
<path d="M342.031 228.375V404C342.031 420.771 338.229 434.521 330.625 445.25C323.125 455.979 314.688 461.344 305.312 461.344C304.479 461.344 303.698 461.031 302.969 460.406C302.344 459.781 302.031 458.948 302.031 457.906C302.031 457.281 302.917 455.458 304.688 452.438C308.646 445.667 310.625 436.604 310.625 425.25V244.938C310.625 240.562 311.667 237.073 313.75 234.469C316.458 231.24 320.156 228.323 324.844 225.719C329.635 223.01 333.542 221.656 336.562 221.656C340.208 221.656 342.031 223.896 342.031 228.375ZM271.562 465.875C263.125 465.875 255.99 462.594 250.156 456.031C248.385 453.948 247.5 451.396 247.5 448.375C247.5 444.938 249.323 441.031 252.969 436.656C256.615 432.281 260.208 430.094 263.75 430.094C265.417 430.094 266.719 430.458 267.656 431.188C268.594 431.917 270.26 433.583 272.656 436.188C275.052 438.896 277.708 440.25 280.625 440.25C282.917 440.25 285.573 439.573 288.594 438.219C291.615 436.865 293.698 436.188 294.844 436.188C297.448 436.188 298.75 437.698 298.75 440.719C298.75 442.281 298.177 444.365 297.031 446.969C295.99 449.573 294.427 452.333 292.344 455.25C290.26 458.167 287.344 460.667 283.594 462.75C279.948 464.833 275.938 465.875 271.562 465.875Z" fill="url(#paint2_linear)"/>
</g>
<defs>
<linearGradient id="paint0_linear" x1="260" y1="64" x2="260" y2="546" gradientUnits="userSpaceOnUse">
<stop stop-color="#576894"/>
<stop offset="1" stop-color="#020202"/>
</linearGradient>
<linearGradient id="paint1_linear" x1="322" y1="-14" x2="322" y2="452" gradientUnits="userSpaceOnUse">
<stop stop-color="#A56550"/>
<stop offset="1" stop-color="#372821"/>
</linearGradient>
<linearGradient id="paint2_linear" x1="318" y1="72" x2="318" y2="538" gradientUnits="userSpaceOnUse">
<stop stop-color="#A56550"/>
<stop offset="1" stop-color="#372821"/>
</linearGradient>
<clipPath id="clip0">
<rect width="507" height="533" fill="white"/>
</clipPath>
</defs>
</svg>
